HIERARCHY
ROOT Hips
{
	OFFSET 0.000000 0.000000 0.000000
	CHANNELS 6 Xposition Yposition Zposition Xrotation Yrotation Zrotation
	JOINT LeftUpLeg_virtual
	{
		OFFSET 0.000000 0.000000 0.000000
		CHANNELS 3 Xrotation Yrotation Zrotation
		JOINT LeftUpLeg
		{
			OFFSET 13.026900 -6.336304 -1.092800
			CHANNELS 3 Xrotation Yrotation Zrotation
			JOINT LeftLeg
			{
				OFFSET 0.524474 -46.096886 9.782700
				CHANNELS 3 Xrotation Yrotation Zrotation
				JOINT LeftFoot
				{
					OFFSET -0.524474 -53.427422 -12.948200
					CHANNELS 3 Xrotation Yrotation Zrotation
					JOINT LeftToeBase
					{
						OFFSET 0.192200 -14.009700 16.364100
						CHANNELS 3 Xrotation Yrotation Zrotation
						JOINT LeftToe_End
						{
							OFFSET -1.784700 -0.561700 9.474800
							CHANNELS 3 Xrotation Yrotation Zrotation
							End Site
							{
								OFFSET 0 0 0
							}
						}
					}
				}
			}
		}
	}
	JOINT RightUpLeg_virtual
	{
		OFFSET 0.000000 0.000000 0.000000
		CHANNELS 3 Xrotation Yrotation Zrotation
		JOINT RightUpLeg
		{
			OFFSET -12.883000 -6.336304 -1.092800
			CHANNELS 3 Xrotation Yrotation Zrotation
			JOINT RightLeg
			{
				OFFSET -0.524587 -46.096825 9.782800
				CHANNELS 3 Xrotation Yrotation Zrotation
				JOINT RightFoot
				{
					OFFSET 0.524587 -53.427383 -12.948300
					CHANNELS 3 Xrotation Yrotation Zrotation
					JOINT RightToeBase
					{
						OFFSET -0.192200 -14.009700 16.364100
						CHANNELS 3 Xrotation Yrotation Zrotation
						JOINT RightToe_End
						{
							OFFSET 1.784700 -0.561700 9.474800
							CHANNELS 3 Xrotation Yrotation Zrotation
							End Site
							{
								OFFSET 0 0 0
							}
						}
					}
				}
			}
		}
	}
	JOINT Spine_virtual
	{
		OFFSET 0.000000 0.000000 0.000000
		CHANNELS 3 Xrotation Yrotation Zrotation
		JOINT Spine
		{
			OFFSET 0.072000 7.257294 -0.789700
			CHANNELS 3 Xrotation Yrotation Zrotation
			JOINT Spine1
			{
				OFFSET 0.000000 12.508769 -0.658067
				CHANNELS 3 Xrotation Yrotation Zrotation
				JOINT Spine1_split
				{
					OFFSET 0.000000 12.508769 -0.658067
					CHANNELS 3 Xrotation Yrotation Zrotation
					JOINT Spine2
					{
						OFFSET 0.000000 12.508769 -0.658067
						CHANNELS 3 Xrotation Yrotation Zrotation
						JOINT Neck_virtual
						{
							OFFSET 0.000000 0.000000 0.000000
							CHANNELS 3 Xrotation Yrotation Zrotation
							JOINT Neck
							{
								OFFSET 0.000000 14.033295 7.520400
								CHANNELS 3 Xrotation Yrotation Zrotation
								JOINT Head
								{
									OFFSET 0.000000 8.198502 5.703100
									CHANNELS 3 Xrotation Yrotation Zrotation
									JOINT HeadTop_End
									{
										OFFSET 0.000000 17.760803 13.332701
										CHANNELS 3 Xrotation Yrotation Zrotation
										End Site
										{
											OFFSET 0 0 0
										}
									}
								}
							}
						}
						JOINT LeftShoulder_virtual
						{
							OFFSET 0.000000 0.000000 0.000000
							CHANNELS 3 Xrotation Yrotation Zrotation
							JOINT LeftShoulder
							{
								OFFSET 6.292450 5.785301 -0.669000
								CHANNELS 3 Xrotation Yrotation Zrotation
								JOINT LeftShoulder_split
								{
									OFFSET 6.292450 5.785301 -0.669000
									CHANNELS 3 Xrotation Yrotation Zrotation
									JOINT LeftArm
									{
										OFFSET 13.907140 -6.093903 1.965100
										CHANNELS 3 Xrotation Yrotation Zrotation
										JOINT LeftForeArm
										{
											OFFSET 34.140198 0.000000 0.000000
											CHANNELS 3 Xrotation Yrotation Zrotation
											JOINT LeftHand
											{
												OFFSET 40.960209 0.000000 0.000000
												CHANNELS 3 Xrotation Yrotation Zrotation
												End Site
												{
													OFFSET 0 0 0
												}
											}
										}
									}
								}
							}
						}
						JOINT RightShoulder_virtual
						{
							OFFSET 0.000000 0.000000 0.000000
							CHANNELS 3 Xrotation Yrotation Zrotation
							JOINT RightShoulder
							{
								OFFSET -6.292450 5.785301 -0.669000
								CHANNELS 3 Xrotation Yrotation Zrotation
								JOINT RightShoulder_split
								{
									OFFSET -6.292450 5.785301 -0.669000
									CHANNELS 3 Xrotation Yrotation Zrotation
									JOINT RightArm
									{
										OFFSET -13.907140 -6.093903 1.965100
										CHANNELS 3 Xrotation Yrotation Zrotation
										JOINT RightForeArm
										{
											OFFSET -34.140198 0.000000 0.000000
											CHANNELS 3 Xrotation Yrotation Zrotation
											JOINT RightHand
											{
												OFFSET -40.960209 0.000000 0.000000
												CHANNELS 3 Xrotation Yrotation Zrotation
												End Site
												{
													OFFSET 0 0 0
												}
											}
										}
									}
								}
							}
						}
					}
				}
			}
		}
	}
}
MOTION
Frames: 6
Frame Time: 0.03333333
4.503546 90.307915 0.209385 0.000000 0.000000 0.000000 -8.300976 -42.298655 13.959344 -22.430792 30.132220 0.664926 53.417892 4.334887 5.245108 -19.307358 18.537823 -9.848259 -0.929630 -0.301558 -0.786640 0.000000 0.000000 0.000000 -8.510607 -42.766779 14.655933 -37.703307 7.810727 -31.945389 65.448983 3.171223 -7.824298 -20.802856 -5.883158 21.315166 -2.393320 1.034317 0.467008 0.000000 0.000000 0.000000 -3.936235 -44.486067 15.595924 1.512670 -3.870075 8.423429 -0.997564 -1.435469 5.196735 1.928791 -1.670282 0.610143 0.000000 0.000000 0.000000 -1.086558 -1.783442 4.691416 -10.449837 6.243230 7.124793 -16.795613 39.283051 -4.244916 0.000000 0.000000 0.000000 -1.497209 -1.685870 4.660551 -0.781040 1.388341 11.672415 0.204952 1.666655 1.060281 -35.615116 -30.308920 -44.515474 -6.959196 -81.242272 -4.576504 0.000000 0.000000 0.000000 -1.556763 -1.723914 4.691143 -0.621197 -6.327710 6.850765 1.765459 1.198217 0.920768 137.680877 78.123861 -101.915186 -0.878693 27.387559 0.830462 0.000000 0.000000 0.000000 
5.187669 91.131004 0.576370 0.000000 0.000000 0.000000 -7.014369 -41.272634 14.912024 -22.915566 29.084308 -0.637988 52.400071 4.230223 4.794386 -19.178959 18.435679 -8.661796 -0.799055 -0.302018 -0.773246 0.000000 0.000000 0.000000 -7.112975 -41.646317 15.666944 -38.775506 7.582154 -31.887001 64.725523 2.968572 -7.774644 -19.891640 -5.890079 21.610594 -3.069840 1.071135 0.471481 0.000000 0.000000 0.000000 -2.519715 -43.659450 16.570107 1.530692 -3.520150 8.267994 -0.933803 -1.225411 5.181950 1.885879 -1.268997 0.405467 0.000000 0.000000 0.000000 -0.991350 -1.542215 4.694195 -10.043001 6.385808 6.039391 -15.605399 38.165205 -5.397464 0.000000 0.000000 0.000000 -1.505169 -1.420310 4.636462 -0.851806 1.763703 11.240722 0.324104 1.509444 0.962134 -35.277657 -30.484111 -44.040722 -9.250941 -84.489180 -6.801282 0.000000 0.000000 0.000000 -1.394951 -1.490540 4.704279 -0.574453 -6.811101 7.423440 1.687076 1.500850 0.440523 138.870027 77.744218 -103.357216 -0.721617 26.383872 0.782834 0.000000 0.000000 0.000000 
5.871313 92.413651 0.859390 0.000000 0.000000 0.000000 -5.743995 -40.081503 15.769549 -23.238044 28.067916 -1.893050 50.613437 4.229225 4.345231 -18.658234 18.127127 -7.645186 -0.747966 -0.299146 -0.750350 0.000000 0.000000 0.000000 -5.751858 -40.421541 16.583149 -40.024495 6.986639 -31.569011 63.409263 2.770828 -7.732824 -18.756287 -5.530028 21.261739 -3.448043 1.110621 0.527124 0.000000 0.000000 0.000000 -1.192271 -42.612379 17.368756 1.597532 -3.184864 8.143159 -0.830142 -0.994768 5.189210 1.690574 -0.893166 0.267570 0.000000 0.000000 0.000000 -0.806934 -1.283024 4.703187 -9.826356 6.410792 4.987586 -14.725186 36.608919 -6.298070 0.000000 0.000000 0.000000 -1.390598 -1.130990 4.646736 -0.914097 2.099577 10.655244 0.432197 1.520441 0.815647 -34.005292 -30.097915 -43.396911 -19.115176 -87.228578 -16.581124 0.000000 0.000000 0.000000 -1.154935 -1.238931 4.708633 -0.481133 -7.188230 7.601938 1.618252 1.888085 0.159303 139.408833 77.084251 -104.612755 -0.656717 25.009217 0.681001 0.000000 0.000000 0.000000 
6.516770 94.003571 1.008511 0.000000 0.000000 0.000000 -4.574976 -38.831063 16.440199 -23.485944 27.166760 -2.948915 48.341962 4.370545 3.913809 -17.860847 17.655438 -6.755769 -0.717427 -0.290581 -0.716828 0.000000 0.000000 0.000000 -4.524492 -39.198070 17.318443 -41.512189 6.018890 -31.112123 61.706613 2.584386 -7.643339 -17.319041 -4.817827 20.304971 -3.460396 1.162784 0.602734 0.000000 0.000000 0.000000 -0.016471 -41.460734 17.928929 1.758874 -2.824307 8.025780 -0.686407 -0.737768 5.181304 1.528623 -0.703672 0.249876 0.000000 0.000000 0.000000 -0.525062 -0.990103 4.671069 -9.771398 6.324027 4.152849 -14.146848 34.858284 -6.985147 0.000000 0.000000 0.000000 -1.149619 -0.827323 4.654959 -0.972096 2.345115 10.038361 0.615688 1.669256 0.728314 -32.301358 -29.378160 -42.857613 -59.031030 -88.763458 -56.432618 0.000000 0.000000 0.000000 -0.852176 -0.962685 4.675680 -0.360551 -7.419302 7.463142 1.556799 2.295536 0.083469 139.836744 76.096333 -106.130259 -0.675616 23.264592 0.539078 0.000000 0.000000 0.000000 
7.067032 95.659195 1.068451 0.000000 0.000000 0.000000 -3.547859 -37.582426 16.882481 -23.723325 26.413574 -3.711448 46.004159 4.592505 3.559030 -16.995027 17.051188 -5.963146 -0.638680 -0.276012 -0.686924 0.000000 0.000000 0.000000 -3.515636 -37.968752 17.789615 -43.173933 4.763489 -30.646523 59.959663 2.559310 -7.565696 -15.507133 -3.770324 19.168091 -3.454316 1.219352 0.640706 0.000000 0.000000 0.000000 0.869090 -40.255595 18.211690 2.038556 -2.408010 7.885259 -0.490096 -0.455744 5.129038 1.430847 -0.692744 0.395912 0.000000 0.000000 0.000000 -0.156334 -0.678118 4.585826 -9.801952 6.145589 3.698785 -13.764668 33.113843 -7.578547 0.000000 0.000000 0.000000 -0.818041 -0.515308 4.637194 -1.033286 2.409953 9.463375 0.762963 1.900622 0.633606 -30.823998 -28.536365 -42.663797 -105.832941 -88.765678 -103.256621 0.000000 0.000000 0.000000 -0.508135 -0.667942 4.593587 -0.247162 -7.525000 7.120859 1.618971 2.812790 0.179726 140.446981 74.839790 -108.081822 -0.768317 21.326555 0.385819 0.000000 0.000000 0.000000 
7.505098 97.183479 0.996376 0.000000 0.000000 0.000000 -2.740896 -36.349208 17.047363 -23.979206 25.774397 -4.177190 43.978236 4.804501 3.348915 -16.178666 16.347972 -5.351263 -0.521097 -0.251368 -0.660540 0.000000 0.000000 0.000000 -2.784833 -36.747435 17.929108 -44.816037 3.316770 -30.219865 58.476064 2.728305 -7.545024 -13.385787 -2.512963 18.124006 -3.690447 1.263043 0.606727 0.000000 0.000000 0.000000 1.467069 -39.081653 18.220279 2.391254 -1.928442 7.709598 -0.246448 -0.169918 5.026002 1.502138 -1.100273 0.524263 0.000000 0.000000 0.000000 0.248698 -0.371234 4.453647 -9.789954 5.901864 3.635722 -13.419981 31.502871 -8.169217 0.000000 0.000000 0.000000 -0.444799 -0.228061 4.591627 -1.116462 2.338630 9.052218 0.892072 2.252918 0.604460 -30.137219 -27.838751 -42.903109 -104.920571 -88.781155 -102.478553 0.000000 0.000000 0.000000 -0.161816 -0.384487 4.472367 -0.148490 -7.549178 6.677868 1.772740 3.229118 0.359716 141.759142 73.591429 -110.892076 -0.920501 19.473863 0.251782 0.000000 0.000000 0.000000 
